<?xml version="1.0" encoding="UTF-8" standalone="no"?>
<svg
   width="310"
   height="60"
   viewBox="0 0 310 60"
   version="1.1"
   id="svg1"
   xml:space="preserve"
   xmlns="http://www.w3.org/2000/svg"
   xmlns:svg="http://www.w3.org/2000/svg"><defs
     id="defs1" /><g
     id="layer1"><path
       id="path1-6"
       style="display:inline;fill:#00c6e6;fill-opacity:1;stroke-width:4.49999;stroke-linecap:square;stroke-linejoin:round;stroke-miterlimit:11.8;paint-order:stroke fill markers"
       d="m 43.231521,14.909332 c -3.67001,0.01929 -7.254965,1.106997 -10.31695,3.130262 -3.163218,2.248153 -6.941968,3.467756 -10.822628,3.493032 -4.237318,-0.01639 -8.346136,-1.456654 -11.666343,-4.089404 0.614328,15.422089 13.279481,27.616904 28.713769,27.647446 7.9002,-0.02728 15.442156,-3.299446 20.859256,-9.050004 5.417757,5.751251 12.960849,9.023467 20.862005,9.050004 15.434288,-0.03054 28.09944,-12.225357 28.71377,-27.647446 -3.32021,2.63275 -7.42903,4.073014 -11.666345,4.089404 -3.880657,-0.02527 -7.659411,-1.244879 -10.822628,-3.493032 -3.061985,-2.023265 -6.646937,-3.110975 -10.31695,-3.130262 -7.06476,0.0098 -13.533921,1.451916 -16.769852,7.732018 -3.235479,-6.279225 -9.703332,-7.721291 -16.767104,-7.732018 z" /><path
       d="m 166.29515,24.93 c 0,-11.58 -9.84,-21.3000003 -21.6,-21.3000003 -11.7,0 -21.66,9.7200003 -21.66,21.3000003 0,11.58 9.96,21.36 21.66,21.36 4.86,0 9.36,-1.68 13.02,-4.44 l 4.26,3.72 3.96,-4.62 -3.9,-3.42 c 2.64,-3.54 4.26,-7.92 4.26,-12.6 z m -21.6,14.52 c -7.62,0 -14.04,-6.6 -14.04,-14.52 0,-7.86 6.42,-14.46 14.04,-14.46 7.56,0 13.98,6.6 13.98,14.46 0,2.82 -0.84,5.52 -2.22,7.74 l -5.76,-4.98 -3.96,4.62 5.52,4.8 c -2.22,1.44 -4.8,2.34 -7.56,2.34 z m 40.66004,6.84 c 9.12,0 16.56,-7.32 16.56,-16.26 0,-8.94 -7.44,-16.2 -16.56,-16.2 -9.18,0 -16.68,7.26 -16.68,16.2 0,8.94 7.5,16.26 16.68,16.26 z m 0,-6.24 c -5.22,0 -9.48,-4.5 -9.48,-10.02 0,-5.52 4.26,-9.96 9.48,-9.96 5.16,0 9.36,4.44 9.36,9.96 0,5.52 -4.2,10.02 -9.36,10.02 z m 34.60003,6.24 c 9.12,0 16.56,-7.32 16.56,-16.26 0,-8.94 -7.44,-16.2 -16.56,-16.2 -9.18,0 -16.68,7.26 -16.68,16.2 0,8.94 7.5,16.26 16.68,16.26 z m 0,-6.24 c -5.22,0 -9.48,-4.5 -9.48,-10.02 0,-5.52 4.26,-9.96 9.48,-9.96 5.16,0 9.36,4.44 9.36,9.96 0,5.52 -4.2,10.02 -9.36,10.02 z m 37.96004,-26.22 c -4.56,0 -8.34,2.1 -10.74,5.58 v -4.86 h -7.32 v 41.34 h 7.32 V 40.71 c 2.4,3.48 6.18,5.58 10.74,5.58 8.22,0 14.28,-6.72 14.28,-16.26 0,-9.48 -6.06,-16.2 -14.28,-16.2 z m -1.98,26.22 c -5.1,0 -8.76,-4.2 -8.76,-10.02 0,-5.82 3.66,-9.96 8.76,-9.96 5.28,0 9,4.14 9,9.96 0,5.82 -3.72,10.02 -9,10.02 z m 23.91996,16.32 c 4.62,-0.06 8.28,-2.76 10.56,-8.64 l 13.2,-33.18 h -7.56 l -8.58,23.16 -9.06,-23.16 h -7.74 l 13.14,31.26 -1.14,2.46 c -1.02,1.68 -2.4,2.34 -4.14,2.34 -1.14,0 -2.58,-0.42 -3.96,-1.14 l -1.56,5.28 c 1.86,1.02 4.5,1.62 6.84,1.62 z"
       id="text1"
       style="fill:#eeeeee;stroke-width:4.5;stroke-linecap:square;stroke-linejoin:round;stroke-miterlimit:11.8;paint-order:stroke fill markers"
       aria-label="Qoopy" /></g></svg>
