<?xml version="1.0" encoding="UTF-8" standalone="no"?>
<svg
   width="120"
   height="120"
   viewBox="0 0 120 120"
   version="1.1"
   id="svg1"
   xml:space="preserve"
   xmlns="http://www.w3.org/2000/svg"
   xmlns:svg="http://www.w3.org/2000/svg"><defs
     id="defs1" /><g
     id="layer1"><path
       id="path1-6"
       style="display:inline;fill:#00c6e6;fill-opacity:1;stroke-width:4.49999;stroke-linecap:square;stroke-linejoin:round;stroke-miterlimit:11.8;paint-order:stroke fill markers"
       d="m 43.231521,44.909332 c -3.67001,0.01929 -7.254965,1.106997 -10.31695,3.130262 -3.163218,2.248153 -6.941968,3.467756 -10.822628,3.493032 -4.237318,-0.01639 -8.346136,-1.456654 -11.666343,-4.089404 0.614328,15.422089 13.279481,27.616904 28.713769,27.647446 7.9002,-0.02728 15.442156,-3.299446 20.859256,-9.050004 5.417757,5.751251 12.960849,9.023467 20.862005,9.050004 15.434288,-0.03054 28.09944,-12.225357 28.71377,-27.647446 -3.32021,2.63275 -7.42903,4.073014 -11.666345,4.089404 -3.880657,-0.02527 -7.659411,-1.244879 -10.822628,-3.493032 -3.061985,-2.023265 -6.646937,-3.110975 -10.31695,-3.130262 -7.06476,0.0098 -13.533921,1.451916 -16.769852,7.732018 -3.235479,-6.279225 -9.703332,-7.721291 -16.767104,-7.732018 z" /></g></svg>
